<svg width="47" height="47" viewBox="0 0 47 47" fill="none" xmlns="http://www.w3.org/2000/svg">
<path d="M23.5003 11.75C22.9809 11.75 22.4828 11.9563 22.1156 12.3236C21.7483 12.6909 21.542 13.189 21.542 13.7084V17.625C21.542 18.1444 21.7483 18.6425 22.1156 19.0098C22.4828 19.377 22.9809 19.5834 23.5003 19.5834C24.0197 19.5834 24.5178 19.377 24.8851 19.0098C25.2523 18.6425 25.4587 18.1444 25.4587 17.625V13.7084C25.4587 13.189 25.2523 12.6909 24.8851 12.3236C24.5178 11.9563 24.0197 11.75 23.5003 11.75ZM23.5003 3.91669C19.8646 3.91669 16.3779 5.36095 13.8071 7.93176C11.2363 10.5026 9.79199 13.9893 9.79199 17.625V29.375C9.79199 33.0107 11.2363 36.4975 13.8071 39.0683C16.3779 41.6391 19.8646 43.0834 23.5003 43.0834C27.136 43.0834 30.6228 41.6391 33.1936 39.0683C35.7644 36.4975 37.2087 33.0107 37.2087 29.375V17.625C37.2087 13.9893 35.7644 10.5026 33.1936 7.93176C30.6228 5.36095 27.136 3.91669 23.5003 3.91669ZM33.292 29.375C33.292 31.9719 32.2604 34.4625 30.4241 36.2988C28.5878 38.1351 26.0972 39.1667 23.5003 39.1667C20.9034 39.1667 18.4129 38.1351 16.5766 36.2988C14.7403 34.4625 13.7087 31.9719 13.7087 29.375V17.625C13.7087 15.0281 14.7403 12.5376 16.5766 10.7013C18.4129 8.86497 20.9034 7.83335 23.5003 7.83335C26.0972 7.83335 28.5878 8.86497 30.4241 10.7013C32.2604 12.5376 33.292 15.0281 33.292 17.625V29.375Z" fill="white"/>
</svg>
